<svg xmlns="http://www.w3.org/2000/svg">
	<symbol id="inst" viewBox="0 0 16 16">
		<path
			d="M8 0C5.829 0 5.556.01 4.703.048 3.85.088 3.269.222 2.76.42a3.917 3.917 0 0 0-1.417.923A3.927 3.927 0 0 0 .42 2.76C.222 3.268.087 3.85.048 4.7.01 5.555 0 5.827 0 8.001c0 2.172.01 2.444.048 3.297.04.852.174 1.433.372 1.942.205.526.478.972.923 1.417.444.445.89.719 1.416.923.51.198 1.09.333 1.942.372C5.555 15.99 5.827 16 8 16s2.444-.01 3.298-.048c.851-.04 1.434-.174 1.943-.372a3.916 3.916 0 0 0 1.416-.923c.445-.445.718-.891.923-1.417.197-.509.332-1.09.372-1.942C15.99 10.445 16 10.173 16 8s-.01-2.445-.048-3.299c-.04-.851-.175-1.433-.372-1.941a3.926 3.926 0 0 0-.923-1.417A3.911 3.911 0 0 0 13.24.42c-.51-.198-1.092-.333-1.943-.372C10.443.01 10.172 0 7.998 0h.003zm-.717 1.442h.718c2.136 0 2.389.007 3.232.046.78.035 1.204.166 1.486.275.373.145.64.319.92.599.28.28.453.546.598.92.11.281.24.705.275 1.485.039.843.047 1.096.047 3.231s-.008 2.389-.047 3.232c-.035.78-.166 1.203-.275 1.485a2.47 2.47 0 0 1-.599.919c-.28.28-.546.453-.92.598-.28.11-.704.24-1.485.276-.843.038-1.096.047-3.232.047s-2.39-.009-3.233-.047c-.78-.036-1.203-.166-1.485-.276a2.478 2.478 0 0 1-.92-.598 2.48 2.48 0 0 1-.6-.92c-.109-.281-.24-.705-.275-1.485-.038-.843-.046-1.096-.046-3.233 0-2.136.008-2.388.046-3.231.036-.78.166-1.204.276-1.486.145-.373.319-.64.599-.92.28-.28.546-.453.92-.598.282-.11.705-.24 1.485-.276.738-.034 1.024-.044 2.515-.045v.002zm4.988 1.328a.96.96 0 1 0 0 1.92.96.96 0 0 0 0-1.92zm-4.27 1.122a4.109 4.109 0 1 0 0 8.217 4.109 4.109 0 0 0 0-8.217zm0 1.441a2.667 2.667 0 1 1 0 5.334 2.667 2.667 0 0 1 0-5.334z" />
	</symbol>
	<symbol id="tg" viewBox="0 0 25 21">
		<path
			d="M23.9834 0.65998C23.8527 0.551275 23.6937 0.47898 23.5234 0.450882C23.3532 0.422784 23.1782 0.439949 23.0174 0.500526L1.64305 8.55545C1.34013 8.66888 1.08367 8.874 0.912287 9.13993C0.740901 9.40586 0.663864 9.71821 0.692775 10.0299C0.721686 10.3417 0.854979 10.6359 1.07259 10.8684C1.2902 11.1009 1.58034 11.259 1.89934 11.319L7.43751 12.3661V18.3126C7.43642 18.6365 7.53637 18.9532 7.72443 19.2218C7.91248 19.4903 8.17995 19.6983 8.49219 19.8187C8.80395 19.9413 9.1468 19.9707 9.47616 19.9032C9.80551 19.8356 10.1061 19.6742 10.339 19.4399L13.0094 16.7729L17.2461 20.3438C17.5518 20.6049 17.946 20.7494 18.3546 20.7501C18.5336 20.7499 18.7116 20.7229 18.8819 20.6698C19.1603 20.5848 19.4107 20.431 19.6081 20.2237C19.8056 20.0165 19.9432 19.763 20.0073 19.4887L24.2883 1.55475C24.3265 1.39301 24.3184 1.22428 24.2647 1.06666C24.211 0.909032 24.1138 0.76845 23.9834 0.65998ZM17.5351 4.31623L8.08614 10.8325L2.85489 9.84428L17.5351 4.31623ZM9.12501 18.3126V13.4904L11.7396 15.6983L9.12501 18.3126ZM18.3567 19.1251L9.63653 11.7618L22.1873 3.09951L18.3567 19.1251Z" />
	</symbol>
	<symbol id="wa" viewBox="0 0 21 22">
		<path
			d="M17.8438 3.31907C16.8888 2.31582 15.7513 1.52038 14.4976 0.979124C13.2439 0.437872 11.8991 0.16165 10.5417 0.166568C4.85419 0.166568 0.218771 4.9874 0.218771 10.9024C0.218771 12.7982 0.697937 14.6399 1.59377 16.2649L0.135437 21.8332L5.60419 20.3382C7.1146 21.1941 8.81252 21.6491 10.5417 21.6491C16.2292 21.6491 20.8646 16.8282 20.8646 10.9132C20.8646 8.0424 19.7917 5.3449 17.8438 3.31907ZM10.5417 19.8291C9.00002 19.8291 7.4896 19.3957 6.16669 18.5832L5.85419 18.3882L2.60419 19.2766L3.46877 15.9832L3.26044 15.6474C2.40392 14.225 1.94912 12.5807 1.94794 10.9024C1.94794 5.98407 5.8021 1.97574 10.5313 1.97574C12.8229 1.97574 14.9792 2.9074 16.5938 4.5974C17.3932 5.42503 18.0268 6.40945 18.4577 7.49361C18.8887 8.57777 19.1084 9.7401 19.1042 10.9132C19.125 15.8316 15.2709 19.8291 10.5417 19.8291ZM15.25 13.1557C14.9896 13.0257 13.7188 12.3757 13.4896 12.2782C13.25 12.1916 13.0834 12.1482 12.9063 12.4082C12.7292 12.6791 12.2396 13.2857 12.0938 13.4591C11.9479 13.6432 11.7917 13.6649 11.5313 13.5241C11.2709 13.3941 10.4375 13.1016 9.45835 12.1916C8.68752 11.4766 8.1771 10.5991 8.02085 10.3282C7.87502 10.0574 8.00002 9.91657 8.13544 9.77573C8.25002 9.65657 8.39585 9.46157 8.52085 9.3099C8.64585 9.15823 8.69794 9.03907 8.78127 8.86573C8.8646 8.68157 8.82294 8.5299 8.76044 8.3999C8.69794 8.2699 8.1771 6.94824 7.96877 6.40657C7.76044 5.88657 7.54169 5.95157 7.38544 5.94074H6.88544C6.70835 5.94074 6.43752 6.00574 6.19794 6.27657C5.96877 6.5474 5.3021 7.1974 5.3021 8.51907C5.3021 9.84074 6.22919 11.1191 6.35419 11.2924C6.47919 11.4766 8.1771 14.1849 10.7604 15.3441C11.375 15.6257 11.8542 15.7882 12.2292 15.9074C12.8438 16.1132 13.4063 16.0807 13.8542 16.0157C14.3542 15.9399 15.3854 15.3657 15.5938 14.7374C15.8125 14.1091 15.8125 13.5782 15.7396 13.4591C15.6667 13.3399 15.5104 13.2857 15.25 13.1557Z" />
	</symbol>
	<symbol id="vk" viewBox="0 0 19 13">
		<path fill-rule="evenodd" clip-rule="evenodd"
			d="M6.12047 0.343506L6.14989 1.81349C6.17661 3.14831 6.3934 4.1458 6.69273 4.88632V0.343506H12.1563V2.81246C12.4611 2.39317 12.7038 1.91268 12.8434 1.42829L13.1558 0.343506H18.5415L18.2247 2.10851C17.9049 3.8899 16.9673 5.3473 15.9443 6.39583C17.0784 7.36325 18.2059 8.80374 18.7657 10.805L19.2984 12.7091H13.5217L13.1837 11.6753C12.9702 11.0225 12.6127 10.4755 12.1563 10.0755V12.7091H10.3603C7.39041 12.7091 4.9007 11.6956 3.15759 9.70953C1.44185 7.75466 0.601179 5.03125 0.534213 1.87533L0.501709 0.343506H6.12047ZM10.6563 7.86226C11.1963 7.91501 11.6993 8.06203 12.1563 8.28576C13.3235 8.85719 14.1908 9.92906 14.6094 11.2091H17.3212C17.1674 10.6592 16.9618 10.16 16.7216 9.70913C16.1876 8.70666 15.4826 7.9431 14.7955 7.3912C14.2956 6.98969 13.8051 6.70021 13.3967 6.51225C13.8015 6.28252 14.2606 5.94382 14.7087 5.51044C15.2977 4.94085 15.8675 4.20772 16.2693 3.34351C16.485 2.8796 16.6524 2.37793 16.7483 1.84351H14.2847C13.9292 3.07773 13.1093 4.23735 12.1563 4.92278C11.676 5.26822 11.1618 5.49322 10.6563 5.54663V1.84351H8.19273V8.331C7.70919 8.21232 7.18547 7.94901 6.69273 7.50838C5.62862 6.55681 4.70893 4.77829 4.65019 1.84351H2.03388C2.04488 2.36213 2.07832 2.8624 2.13378 3.34351C2.65409 7.85736 5.11214 10.6838 9.15627 11.1429C9.54319 11.1869 9.94462 11.2091 10.3603 11.2091H10.6563V7.86226Z" />
	</symbol>
</svg>