<svg width="80" height="80" viewBox="0 0 80 80" fill="none" xmlns="http://www.w3.org/2000/svg">
	<rect width="80" height="80" rx="40" fill="#FFDCE5" />
	<path
		d="M48.0794 52.4051C47.6004 53.9723 46.8517 55.4467 45.8658 56.7643C44.9656 57.9484 43.8657 58.9714 42.6138 59.7888C41.389 60.5837 40.0691 61.2263 38.684 61.702C37.2906 62.1749 35.8521 62.5073 34.3905 62.6939C32.9647 62.8894 31.5272 62.9916 30.0877 63H13.6101V62.5561C14.3649 62.4667 15.1029 62.2719 15.8019 61.9776C16.4121 61.746 16.9607 61.3806 17.4061 60.9092C17.5874 60.6925 17.7046 60.4309 17.745 60.1531C17.8196 59.798 17.8849 59.3969 17.9471 58.9531C18.0093 58.5092 18.0528 58.0347 18.0839 57.5296C18.115 57.0245 18.1274 56.5347 18.1274 56.0602C18.1274 55.647 18.1274 55.0837 18.1492 54.3704C18.1709 53.6572 18.1803 52.8796 18.1958 52.0347C18.2114 51.1898 18.2176 50.3235 18.2176 49.4327V36.5756C18.2176 36.0399 18.1958 35.544 18.1492 35.0848C18.1171 34.6636 18.0548 34.2452 17.9626 33.8327C17.8978 33.5165 17.7582 33.2197 17.5554 32.9664C17.1324 32.4499 16.5682 32.0632 15.9294 31.8521C15.2337 31.6325 14.5169 31.4838 13.7904 31.4083V30.9644C15.0568 30.9644 16.8786 30.9572 19.256 30.9429C21.6333 30.9287 24.5102 30.9205 27.8865 30.9185H30.7779C31.7727 30.9185 32.7645 30.9644 33.7594 31.0532C34.7611 31.1441 35.7566 31.2923 36.7409 31.497C37.749 31.7056 38.7332 32.0133 39.6789 32.4154C40.9471 32.9539 42.1445 33.6416 43.2449 34.4633C44.3642 35.2972 45.3476 36.2944 46.1611 37.4205C47.0237 38.6328 47.6936 39.9675 48.1478 41.3786C48.6699 43.0425 48.9217 44.7771 48.8939 46.5184C48.9283 48.505 48.6536 50.4851 48.0794 52.3898M42.5236 41.596C42.0071 40.0143 41.2447 38.521 40.2634 37.1695C39.3233 35.8661 38.1672 34.7277 36.8435 33.8021C35.5516 32.8964 34.0693 32.2886 32.5065 32.0236C31.9033 31.9031 31.2411 31.8011 30.5198 31.7174C29.6331 31.6369 28.7428 31.6001 27.8523 31.6072C27.4917 31.6072 27.0999 31.6072 26.6771 31.6287C26.2543 31.6501 25.8439 31.6746 25.4335 31.7174C25.0231 31.7603 24.6501 31.8001 24.305 31.8276C24.0227 31.8477 23.7428 31.8928 23.4687 31.9623C23.3174 33.4174 23.2272 35.4195 23.1982 37.9684C23.1692 40.5174 23.1505 43.5654 23.1422 47.1123V52.3164C23.1422 53.8592 23.1578 55.1194 23.1888 56.097C23.1888 56.5133 23.2106 56.9633 23.2541 57.4531C23.2977 57.9429 23.3536 58.4174 23.4127 58.8765C23.4654 59.3011 23.5645 59.7188 23.708 60.1225C23.8033 60.4273 23.9645 60.7083 24.1806 60.9459C24.8027 61.5485 25.6006 61.9446 26.4626 62.0786C27.3197 62.2372 28.1896 62.3192 29.0617 62.3235C29.8141 62.3235 30.5893 62.2867 31.3872 62.2133C32.145 62.1474 32.8939 62.0059 33.6226 61.7908C36.8767 60.8725 39.3089 59.0857 40.9194 56.4306C42.5298 53.7755 43.3361 50.5102 43.3382 46.6347C43.3405 44.9232 43.0655 43.2222 42.5236 41.596Z"
		fill="#1B1B1B" />
	<path
		d="M51.2658 50.4489V49.9958C52.2377 49.9396 53.1946 49.733 54.1012 49.3836C54.866 49.0775 55.3697 48.7132 55.6122 48.3244C55.6988 48.1548 55.7535 47.9713 55.7738 47.7826C55.8205 47.5132 55.8578 47.1979 55.8889 46.8367C55.92 46.4754 55.9417 46.0989 55.9573 45.7101C55.9728 45.3214 55.979 44.9418 55.979 44.5836C56.0101 43.5918 56.0257 42.5714 56.0257 41.5224V34.4081H37.9438V44.0999C37.9438 44.9693 37.9438 45.8111 37.9874 46.6224C38.0309 47.4336 38.1708 47.9999 38.4009 48.3366C38.7938 48.8664 39.3335 49.2735 39.9553 49.5091C40.5841 49.7681 41.2483 49.9342 41.9264 50.002V50.4489H28.421V49.9958C29.1754 49.8767 29.9131 49.6712 30.6191 49.3836C31.2294 49.1583 31.7777 48.7956 32.2202 48.3244C32.377 48.1014 32.4831 47.8476 32.5311 47.5805C32.6138 47.1861 32.675 46.7875 32.7145 46.3867C32.7581 45.9336 32.7985 45.4469 32.8264 44.9203C32.8544 44.3938 32.8731 43.8918 32.8731 43.4112C32.8731 42.9887 32.8731 42.4193 32.898 41.6969C32.9228 40.9744 32.9259 40.1877 32.9415 39.3306C32.957 38.4734 32.9664 37.5948 32.9664 36.6948V23.6786C32.9664 23.1398 32.9415 22.6347 32.898 22.1694C32.8585 21.7447 32.7889 21.3233 32.6897 20.9082C32.6218 20.5857 32.4757 20.2843 32.2637 20.0296C31.8496 19.526 31.305 19.1421 30.6875 18.9184C29.9988 18.6791 29.284 18.5198 28.5578 18.4439V18H42.2125V18.45C41.7499 18.5169 41.2912 18.6079 40.8383 18.7224C40.3622 18.8333 39.9089 19.0238 39.4983 19.2857C39.0816 19.5575 38.7337 19.9198 38.4817 20.3449C38.1877 20.8692 38.0307 21.4572 38.0247 22.0561C37.9936 23.1092 37.9718 24.2418 37.9563 25.4602C37.9407 26.6785 37.9345 27.8418 37.9345 28.953V33.5051H56.0163V26.2653C56.0163 25.4816 56.0008 24.5969 55.9697 23.6051C55.9386 23.0326 55.9013 22.4418 55.8547 21.8235C55.8358 21.2931 55.6864 20.7752 55.4194 20.3143C54.8722 19.5031 54.2442 19.001 53.554 18.8051C52.8672 18.6117 52.1598 18.4977 51.4461 18.4653V18H65.2189V18.45C64.4744 18.5452 63.7489 18.7516 63.0675 19.0622C62.4099 19.3396 61.8635 19.8227 61.513 20.4367C61.3703 20.7116 61.2777 21.0089 61.2394 21.3153C61.1773 21.6918 61.1306 22.1143 61.0995 22.5796C61.0684 23.0449 61.056 23.5163 61.056 23.9969V38.7336C61.056 39.5765 61.0633 40.4479 61.0778 41.3479C61.0923 42.2479 61.0995 43.2397 61.0995 44.3234C61.0995 45.1958 61.1244 46.0009 61.1679 46.7356C61.2115 47.4703 61.3296 47.9601 61.513 48.2448C61.888 48.8308 62.4518 49.2759 63.1142 49.5091C63.8248 49.7571 64.5625 49.9225 65.3122 50.002V50.4489H51.2658Z"
		fill="#1B1B1B" />
</svg>